<?xml version="1.0" encoding="iso-8859-1"?>
<!-- Generator: Adobe Illustrator 19.0.0, SVG Export Plug-In . SVG Version: 6.00 Build 0)  -->
<svg version="1.1" id="Layer_1" xmlns="http://www.w3.org/2000/svg" xmlns:xlink="http://www.w3.org/1999/xlink" x="0px" y="0px"
	 viewBox="0 0 330 330" style="enable-background:new 0 0 330 330;" xml:space="preserve">
<g id="XMLID_21_">
	<path id="XMLID_22_" d="M270,130.145V15c0-0.113-0.015-0.222-0.017-0.334c-0.007-0.285-0.021-0.569-0.044-0.855
		c-0.017-0.216-0.037-0.431-0.063-0.644c-0.033-0.27-0.075-0.538-0.123-0.806c-0.04-0.225-0.082-0.448-0.132-0.668
		c-0.056-0.249-0.122-0.496-0.19-0.743c-0.065-0.232-0.133-0.463-0.209-0.69c-0.076-0.229-0.16-0.454-0.248-0.68
		c-0.093-0.238-0.188-0.475-0.292-0.707c-0.093-0.207-0.193-0.412-0.297-0.616c-0.122-0.243-0.249-0.482-0.384-0.717
		c-0.108-0.187-0.221-0.371-0.338-0.554c-0.152-0.241-0.311-0.477-0.477-0.709C267.121,6.186,267.067,6.09,267,6
		c-0.064-0.085-0.137-0.159-0.201-0.242c-0.169-0.215-0.344-0.424-0.523-0.629c-0.156-0.179-0.313-0.354-0.477-0.523
		c-0.166-0.172-0.338-0.338-0.512-0.502c-0.189-0.179-0.379-0.356-0.576-0.524c-0.166-0.141-0.337-0.274-0.509-0.407
		c-0.214-0.167-0.427-0.331-0.647-0.484c-0.181-0.126-0.367-0.242-0.554-0.36c-0.219-0.138-0.436-0.276-0.661-0.402
		c-0.213-0.12-0.431-0.228-0.649-0.337c-0.207-0.103-0.413-0.208-0.624-0.301c-0.247-0.109-0.499-0.205-0.752-0.301
		c-0.195-0.074-0.389-0.149-0.586-0.214c-0.266-0.088-0.536-0.163-0.808-0.237c-0.199-0.054-0.398-0.109-0.601-0.154
		c-0.261-0.059-0.525-0.107-0.791-0.152c-0.228-0.039-0.455-0.076-0.684-0.104c-0.24-0.029-0.481-0.05-0.724-0.068
		c-0.267-0.02-0.534-0.034-0.802-0.041C255.213,0.014,255.108,0,255,0H15c-0.109,0-0.215,0.014-0.322,0.017
		c-0.267,0.006-0.531,0.02-0.796,0.04c-0.245,0.018-0.488,0.039-0.729,0.069c-0.226,0.028-0.451,0.065-0.677,0.103
		c-0.269,0.046-0.536,0.094-0.8,0.153c-0.198,0.045-0.395,0.1-0.592,0.152c-0.274,0.074-0.547,0.15-0.814,0.239
		C10.074,0.838,9.883,0.913,9.69,0.985c-0.255,0.097-0.51,0.193-0.758,0.304c-0.21,0.093-0.415,0.196-0.621,0.299
		c-0.22,0.11-0.439,0.219-0.652,0.338C7.436,2.052,7.218,2.19,7,2.327c-0.187,0.118-0.374,0.234-0.555,0.36
		C6.225,2.841,6.01,3.006,5.796,3.173C5.625,3.306,5.455,3.438,5.291,3.578C5.092,3.747,4.9,3.926,4.709,4.106
		C4.537,4.269,4.367,4.433,4.202,4.603C4.039,4.774,3.881,4.951,3.724,5.131C3.544,5.335,3.37,5.543,3.202,5.757
		C3.137,5.841,3.063,5.915,3,6C2.933,6.09,2.879,6.186,2.813,6.277C2.647,6.509,2.488,6.745,2.335,6.986
		C2.219,7.17,2.105,7.353,1.998,7.541C1.863,7.775,1.736,8.016,1.613,8.258C1.511,8.462,1.41,8.666,1.318,8.873
		c-0.105,0.233-0.2,0.469-0.293,0.707c-0.088,0.226-0.172,0.451-0.248,0.68c-0.076,0.227-0.143,0.458-0.209,0.69
		c-0.068,0.247-0.135,0.493-0.191,0.743c-0.05,0.221-0.092,0.444-0.132,0.668c-0.048,0.269-0.09,0.536-0.123,0.806
		c-0.026,0.214-0.046,0.429-0.063,0.646c-0.023,0.284-0.037,0.568-0.044,0.852C0.015,14.777,0,14.887,0,15v180
		c0,8.284,6.716,15,15,15h106.076c-0.704,4.901-1.076,9.907-1.076,15c0,57.897,47.102,105,105,105s105-47.103,105-105
		C330,183.198,305.443,147.027,270,130.145z M210,30l-75,56.25L60,30H210z M30,180V45l96,72c2.667,2,5.833,3,9,3s6.333-1,9-3l96-72
		v76.076c-4.9-0.704-9.907-1.076-15-1.076c-41.803,0-77.973,24.557-94.855,60H30z M225,300c-41.355,0-75-33.645-75-75
		c0-41.355,33.645-75,75-75s75,33.645,75,75C300,266.355,266.355,300,225,300z"/>
	<path id="XMLID_27_" d="M246.394,192.394L212,226.787l-9.394-9.393c-5.857-5.858-15.355-5.858-21.213,0
		c-5.858,5.858-5.858,15.355,0,21.213l20,20C204.322,261.536,208.161,263,212,263s7.678-1.464,10.606-4.394l45-45
		c5.858-5.858,5.858-15.355,0-21.213C261.749,186.535,252.251,186.535,246.394,192.394z"/>
</g>
<g>
</g>
<g>
</g>
<g>
</g>
<g>
</g>
<g>
</g>
<g>
</g>
<g>
</g>
<g>
</g>
<g>
</g>
<g>
</g>
<g>
</g>
<g>
</g>
<g>
</g>
<g>
</g>
<g>
</g>
</svg>
