<?xml version="1.0" encoding="iso-8859-1"?>
<!-- Generator: Adobe Illustrator 19.0.0, SVG Export Plug-In . SVG Version: 6.00 Build 0)  -->
<svg version="1.1" id="Layer_1" xmlns="http://www.w3.org/2000/svg" xmlns:xlink="http://www.w3.org/1999/xlink" x="0px" y="0px"
	 viewBox="0 0 512 512" style="enable-background:new 0 0 512 512;" xml:space="preserve">
<g>
	<g>
		<g>
			<path d="M52.512,0v149.021H6.659v200.638h45.853v103.169h286.582V512l87.706-59.172h78.541V252.19h-45.854v-51.555h45.855V0
				H52.512z M23.884,332.434V166.246h418.378v166.188h-286.58v43.996l-65.215-43.996H23.884z M459.487,349.659v-80.244h28.629
				v166.188h-66.582L356.319,479.6v-43.997H69.737v-85.944h15.465l87.706,59.171v-59.171H459.487z M488.116,183.411h-28.629v-34.389
				H69.737V17.225h418.379V183.411z"/>
			<rect x="112.708" y="45.853" width="332.44" height="17.225"/>
			<rect x="112.708" y="103.165" width="332.44" height="17.225"/>
			<rect x="66.855" y="212.073" width="332.44" height="17.225"/>
			<rect x="66.855" y="269.385" width="332.44" height="17.225"/>
			<rect x="204.413" y="384.023" width="240.723" height="17.225"/>
		</g>
	</g>
</g>
<g>
</g>
<g>
</g>
<g>
</g>
<g>
</g>
<g>
</g>
<g>
</g>
<g>
</g>
<g>
</g>
<g>
</g>
<g>
</g>
<g>
</g>
<g>
</g>
<g>
</g>
<g>
</g>
<g>
</g>
</svg>
